<svg xmlns="http://www.w3.org/2000/svg" viewBox="0 0 512 512">
  <defs>
    <linearGradient id="appBackground" x1="62" y1="64" x2="450" y2="448" gradientUnits="userSpaceOnUse">
      <stop offset="0" stop-color="#e8fffb"/>
      <stop offset="0.52" stop-color="#fffefa"/>
      <stop offset="1" stop-color="#ffe2e7"/>
    </linearGradient>
    <linearGradient id="letterGradient" x1="152" y1="118" x2="374" y2="392" gradientUnits="userSpaceOnUse">
      <stop offset="0" stop-color="#08d6b8"/>
      <stop offset="0.48" stop-color="#118ab2"/>
      <stop offset="1" stop-color="#ef476f"/>
    </linearGradient>
    <linearGradient id="pencilGradient" x1="152" y1="372" x2="319" y2="194" gradientUnits="userSpaceOnUse">
      <stop offset="0" stop-color="#102235"/>
      <stop offset="1" stop-color="#1f3b56"/>
    </linearGradient>
  </defs>
  <rect width="512" height="512" rx="112" fill="url(#appBackground)"/>
  <path fill="url(#letterGradient)" d="M168 132h92c107 0 178 68 178 162 0 95-71 164-178 164h-92l54-66h38c62 0 102-40 102-98 0-57-40-96-102-96h-24v151h-68V132Z"/>
  <path fill="#ffffff" d="M236 198h24c62 0 102 39 102 96 0 58-40 98-102 98h-38l-54 66h92c107 0 178-69 178-164 0-94-71-162-178-162h-92v217l68-82V198Z" opacity=".18"/>
  <g transform="rotate(42 246 290)">
    <rect x="210" y="135" width="76" height="232" rx="31" fill="url(#pencilGradient)"/>
    <path fill="#ffffff" d="M210 367h76l-20 47h-36l-20-47Z"/>
    <path fill="#102235" d="M230 414h36l-18 45-18-45Z"/>
    <path fill="#ffffff" d="M218 151c8-12 22-19 38-16" opacity=".12"/>
  </g>
</svg>
